{
	"asset":{
		"generator":"Khronos glTF Blender I/O v3.5.30",
		"version":"2.0"
	},
	"extensionsUsed":[
		"KHR_materials_specular",
		"KHR_materials_ior"
	],
	"scene":0,
	"scenes":[
		{
			"name":"Scene",
			"nodes":[
				0,
				1
			]
		}
	],
	"nodes":[
		{
			"name":"CameraShakify.v2_Camera_0",
			"rotation":[
				0.0021303484681993723,
				0.005210536532104015,
				-0.007959144189953804,
				0.999952495098114
			],
			"translation":[
				8727.599609375,
				-1441.5999755859375,
				-1825.199951171875
			]
		},
		{
			"mesh":0,
			"name":"Cube",
			"scale":[
				0.7752084732055664,
				1,
				2.2034454345703125
			]
		}
	],
	"materials":[
		{
			"doubleSided":true,
			"extensions":{
				"KHR_materials_specular":{
					"specularColorFactor":[
						0,
						0,
						0
					]
				},
				"KHR_materials_ior":{
					"ior":1.4500000476837158
				}
			},
			"name":"Material",
			"pbrMetallicRoughness":{
				"baseColorFactor":[
					0.020379066467285156,
					0.020379066467285156,
					0.020379066467285156,
					1
				],
				"metallicFactor":0,
				"roughnessFactor":0.5
			}
		},
		{
			"doubleSided":true,
			"extensions":{
				"KHR_materials_specular":{
					"specularColorFactor":[
						0,
						0,
						0
					]
				},
				"KHR_materials_ior":{
					"ior":1.4500000476837158
				}
			},
			"name":"Material.006",
			"pbrMetallicRoughness":{
				"baseColorFactor":[
					0.1149354875087738,
					0.1149354875087738,
					0.1149354875087738,
					1
				],
				"metallicFactor":0,
				"roughnessFactor":0.5
			}
		},
		{
			"doubleSided":true,
			"extensions":{
				"KHR_materials_specular":{
					"specularColorFactor":[
						1.4004080789774986,
						1.4004080789774986,
						1.4004080789774986
					]
				},
				"KHR_materials_ior":{
					"ior":1.4500000476837158
				}
			},
			"name":"Material.004",
			"pbrMetallicRoughness":{
				"baseColorFactor":[
					0,
					0,
					0,
					1
				],
				"metallicFactor":0.7559055089950562,
				"roughnessFactor":0
			}
		}
	],
	"meshes":[
		{
			"name":"Cube.001",
			"primitives":[
				{
					"attributes":{
						"COLOR_0":0,
						"POSITION":1,
						"TEXCOORD_0":2,
						"NORMAL":3
					},
					"indices":4,
					"material":0
				},
				{
					"attributes":{
						"COLOR_0":5,
						"POSITION":6,
						"TEXCOORD_0":7,
						"NORMAL":8
					},
					"indices":9,
					"material":1
				},
				{
					"attributes":{
						"COLOR_0":10,
						"POSITION":11,
						"TEXCOORD_0":12,
						"NORMAL":13
					},
					"indices":14,
					"material":2
				}
			]
		}
	],
	"accessors":[
		{
			"bufferView":0,
			"componentType":5123,
			"count":8973,
			"normalized":true,
			"type":"VEC4"
		},
		{
			"bufferView":1,
			"componentType":5126,
			"count":8973,
			"max":[
				1.2611761093139648,
				1.1169017553329468,
				1.0863184928894043
			],
			"min":[
				-1.2688806056976318,
				-2.57867169380188,
				-0.9473543763160706
			],
			"type":"VEC3"
		},
		{
			"bufferView":2,
			"componentType":5126,
			"count":8973,
			"type":"VEC2"
		},
		{
			"bufferView":3,
			"componentType":5126,
			"count":8973,
			"type":"VEC3"
		},
		{
			"bufferView":4,
			"componentType":5123,
			"count":30078,
			"type":"SCALAR"
		},
		{
			"bufferView":5,
			"componentType":5123,
			"count":122,
			"normalized":true,
			"type":"VEC4"
		},
		{
			"bufferView":6,
			"componentType":5126,
			"count":122,
			"max":[
				0.8771087527275085,
				0.20419631898403168,
				1.0863184928894043
			],
			"min":[
				-0.8771087527275085,
				-0.9037125110626221,
				-0.8941658735275269
			],
			"type":"VEC3"
		},
		{
			"bufferView":7,
			"componentType":5126,
			"count":122,
			"type":"VEC2"
		},
		{
			"bufferView":8,
			"componentType":5126,
			"count":122,
			"type":"VEC3"
		},
		{
			"bufferView":9,
			"componentType":5123,
			"count":186,
			"type":"SCALAR"
		},
		{
			"bufferView":10,
			"componentType":5123,
			"count":22,
			"normalized":true,
			"type":"VEC4"
		},
		{
			"bufferView":11,
			"componentType":5126,
			"count":22,
			"max":[
				1.1548335552215576,
				0.7961141467094421,
				1.4542217254638672
			],
			"min":[
				-1.1548335552215576,
				-0.9037125110626221,
				1
			],
			"type":"VEC3"
		},
		{
			"bufferView":12,
			"componentType":5126,
			"count":22,
			"type":"VEC2"
		},
		{
			"bufferView":13,
			"componentType":5126,
			"count":22,
			"type":"VEC3"
		},
		{
			"bufferView":14,
			"componentType":5123,
			"count":36,
			"type":"SCALAR"
		}
	],
	"bufferViews":[
		{
			"buffer":0,
			"byteLength":71784,
			"byteOffset":0,
			"target":34962
		},
		{
			"buffer":0,
			"byteLength":107676,
			"byteOffset":71784,
			"target":34962
		},
		{
			"buffer":0,
			"byteLength":71784,
			"byteOffset":179460,
			"target":34962
		},
		{
			"buffer":0,
			"byteLength":107676,
			"byteOffset":251244,
			"target":34962
		},
		{
			"buffer":0,
			"byteLength":60156,
			"byteOffset":358920,
			"target":34963
		},
		{
			"buffer":0,
			"byteLength":976,
			"byteOffset":419076,
			"target":34962
		},
		{
			"buffer":0,
			"byteLength":1464,
			"byteOffset":420052,
			"target":34962
		},
		{
			"buffer":0,
			"byteLength":976,
			"byteOffset":421516,
			"target":34962
		},
		{
			"buffer":0,
			"byteLength":1464,
			"byteOffset":422492,
			"target":34962
		},
		{
			"buffer":0,
			"byteLength":372,
			"byteOffset":423956,
			"target":34963
		},
		{
			"buffer":0,
			"byteLength":176,
			"byteOffset":424328,
			"target":34962
		},
		{
			"buffer":0,
			"byteLength":264,
			"byteOffset":424504,
			"target":34962
		},
		{
			"buffer":0,
			"byteLength":176,
			"byteOffset":424768,
			"target":34962
		},
		{
			"buffer":0,
			"byteLength":264,
			"byteOffset":424944,
			"target":34962
		},
		{
			"buffer":0,
			"byteLength":72,
			"byteOffset":425208,
			"target":34963
		}
	],
	"buffers":[
		{
			"byteLength":425280,
			"uri":"data:application/octet-stream;base64,"
		}
	]
}
