{
	"asset":{
		"generator":"Khronos glTF Blender I/O v3.5.30",
		"version":"2.0"
	},
	"extensionsUsed":[
		"KHR_materials_specular",
		"KHR_materials_ior"
	],
	"scene":0,
	"scenes":[
		{
			"name":"Scene",
			"nodes":[
				0,
				1,
				2,
				3
			]
		}
	],
	"nodes":[
		{
			"mesh":0,
			"name":"Cube.001",
			"translation":[
				0,
				1.5782662630081177,
				0
			]
		},
		{
			"mesh":1,
			"name":"Cube.002",
			"scale":[
				0.8760856986045837,
				0.8611468076705933,
				0.8760856986045837
			],
			"translation":[
				0,
				0.4445991814136505,
				0
			]
		},
		{
			"mesh":2,
			"name":"Cube.003",
			"scale":[
				0.937473714351654,
				0.9214884042739868,
				0.937473714351654
			],
			"translation":[
				0,
				0.2175440490245819,
				0
			]
		},
		{
			"name":"Empty.004",
			"scale":[
				2.4213497638702393,
				2.4213497638702393,
				2.4213497638702393
			],
			"translation":[
				0,
				0.5560104250907898,
				0
			]
		}
	],
	"materials":[
		{
			"doubleSided":true,
			"name":"Material.004",
			"pbrMetallicRoughness":{
				"baseColorFactor":[
					0.800000011920929,
					0.800000011920929,
					0.800000011920929,
					1
				],
				"metallicFactor":0,
				"roughnessFactor":0.5
			}
		},
		{
			"doubleSided":true,
			"extensions":{
				"KHR_materials_specular":{
					"specularColorFactor":[
						0,
						0,
						0
					]
				},
				"KHR_materials_ior":{
					"ior":1.4500000476837158
				}
			},
			"name":"Material.005",
			"pbrMetallicRoughness":{
				"baseColorTexture":{
					"index":0
				},
				"metallicFactor":0,
				"roughnessFactor":0.5
			}
		},
		{
			"doubleSided":true,
			"extensions":{
				"KHR_materials_specular":{
					"specularColorFactor":[
						0,
						0,
						0
					]
				},
				"KHR_materials_ior":{
					"ior":1.4500000476837158
				}
			},
			"name":"Material.006",
			"pbrMetallicRoughness":{
				"baseColorTexture":{
					"index":1
				},
				"metallicFactor":0,
				"roughnessFactor":0.013392865657806396
			}
		},
		{
			"doubleSided":true,
			"name":"Material.007",
			"pbrMetallicRoughness":{
				"baseColorTexture":{
					"index":2
				},
				"metallicFactor":0,
				"roughnessFactor":0.5
			}
		},
		{
			"doubleSided":true,
			"extensions":{
				"KHR_materials_specular":{
					"specularColorFactor":[
						0,
						0,
						0
					]
				},
				"KHR_materials_ior":{
					"ior":1.4500000476837158
				}
			},
			"name":"Material.008",
			"pbrMetallicRoughness":{
				"baseColorFactor":[
					0,
					0,
					0,
					1
				],
				"metallicFactor":0,
				"roughnessFactor":0.5
			}
		},
		{
			"doubleSided":true,
			"name":"Material.001",
			"pbrMetallicRoughness":{
				"baseColorTexture":{
					"index":3
				},
				"metallicFactor":0
			}
		},
		{
			"doubleSided":true,
			"extensions":{
				"KHR_materials_specular":{
					"specularColorFactor":[
						0,
						0,
						0
					]
				},
				"KHR_materials_ior":{
					"ior":1.4500000476837158
				}
			},
			"name":"Material.002",
			"pbrMetallicRoughness":{
				"baseColorTexture":{
					"index":4
				},
				"metallicFactor":0,
				"roughnessFactor":0.5
			}
		},
		{
			"doubleSided":true,
			"extensions":{
				"KHR_materials_specular":{
					"specularColorFactor":[
						0,
						0,
						0
					]
				},
				"KHR_materials_ior":{
					"ior":1.4500000476837158
				}
			},
			"name":"Material",
			"pbrMetallicRoughness":{
				"baseColorTexture":{
					"index":5
				},
				"metallicFactor":0,
				"roughnessFactor":0.5
			}
		}
	],
	"meshes":[
		{
			"name":"Cube.002",
			"primitives":[
				{
					"attributes":{
						"POSITION":0,
						"TEXCOORD_0":1,
						"NORMAL":2
					},
					"indices":3,
					"material":0
				},
				{
					"attributes":{
						"POSITION":4,
						"TEXCOORD_0":5,
						"NORMAL":6
					},
					"indices":7,
					"material":1
				},
				{
					"attributes":{
						"POSITION":8,
						"TEXCOORD_0":9,
						"NORMAL":10
					},
					"indices":11,
					"material":2
				},
				{
					"attributes":{
						"POSITION":12,
						"TEXCOORD_0":13,
						"NORMAL":14
					},
					"indices":15,
					"material":3
				},
				{
					"attributes":{
						"POSITION":16,
						"TEXCOORD_0":17,
						"NORMAL":18
					},
					"indices":19,
					"material":4
				}
			]
		},
		{
			"name":"Cube.004",
			"primitives":[
				{
					"attributes":{
						"POSITION":20,
						"TEXCOORD_0":21,
						"NORMAL":22
					},
					"indices":23,
					"material":5
				},
				{
					"attributes":{
						"POSITION":24,
						"TEXCOORD_0":25,
						"NORMAL":26
					},
					"indices":27,
					"material":6
				}
			]
		},
		{
			"name":"Cube.007",
			"primitives":[
				{
					"attributes":{
						"POSITION":28,
						"TEXCOORD_0":29,
						"NORMAL":30
					},
					"indices":31,
					"material":5
				},
				{
					"attributes":{
						"POSITION":32,
						"TEXCOORD_0":33,
						"NORMAL":34
					},
					"indices":35,
					"material":7
				}
			]
		}
	],
	"textures":[
		{
			"sampler":0,
			"source":0
		},
		{
			"sampler":0,
			"source":1
		},
		{
			"sampler":0,
			"source":2
		},
		{
			"sampler":0,
			"source":3
		},
		{
			"sampler":0,
			"source":4
		},
		{
			"sampler":0,
			"source":4
		}
	],
	"images":[
		{
			"bufferView":8,
			"mimeType":"image/jpeg",
			"name":"WhatsApp Image 2023-04-15 at 2.53.02 AM"
		},
		{
			"bufferView":13,
			"mimeType":"image/jpeg",
			"name":"WhatsApp Image 2023-04-15 at 2.59.45 AM"
		},
		{
			"bufferView":18,
			"mimeType":"image/jpeg",
			"name":"WhatsApp Image 2023-04-15 at 3.07.01 AM"
		},
		{
			"bufferView":27,
			"mimeType":"image/jpeg",
			"name":"uvmap"
		},
		{
			"bufferView":32,
			"mimeType":"image/jpeg",
			"name":"WhatsApp Image 2023-04-15 at 1.01.12 AM"
		}
	],
	"accessors":[
		{
			"bufferView":0,
			"componentType":5126,
			"count":112,
			"max":[
				1.01254403591156,
				1.1133191585540771,
				0.9221075773239136
			],
			"min":[
				-0.381703644990921,
				-5.786452770233154,
				-0.9221075773239136
			],
			"type":"VEC3"
		},
		{
			"bufferView":1,
			"componentType":5126,
			"count":112,
			"type":"VEC2"
		},
		{
			"bufferView":2,
			"componentType":5126,
			"count":112,
			"type":"VEC3"
		},
		{
			"bufferView":3,
			"componentType":5123,
			"count":168,
			"type":"SCALAR"
		},
		{
			"bufferView":4,
			"componentType":5126,
			"count":176,
			"max":[
				0.4308057427406311,
				-1.0360610485076904,
				0.9348957538604736
			],
			"min":[
				-0.5412008762359619,
				-5.335641384124756,
				-0.9348957538604736
			],
			"type":"VEC3"
		},
		{
			"bufferView":5,
			"componentType":5126,
			"count":176,
			"type":"VEC2"
		},
		{
			"bufferView":6,
			"componentType":5126,
			"count":176,
			"type":"VEC3"
		},
		{
			"bufferView":7,
			"componentType":5123,
			"count":264,
			"type":"SCALAR"
		},
		{
			"bufferView":9,
			"componentType":5126,
			"count":198,
			"max":[
				0.501276969909668,
				1.28559148311615,
				1.645697832107544
			],
			"min":[
				-0.5598398447036743,
				-1.1480463743209839,
				-1.645697832107544
			],
			"type":"VEC3"
		},
		{
			"bufferView":10,
			"componentType":5126,
			"count":198,
			"type":"VEC2"
		},
		{
			"bufferView":11,
			"componentType":5126,
			"count":198,
			"type":"VEC3"
		},
		{
			"bufferView":12,
			"componentType":5123,
			"count":312,
			"type":"SCALAR"
		},
		{
			"bufferView":14,
			"componentType":5126,
			"count":232,
			"max":[
				0.4275450110435486,
				0.7020540833473206,
				3.5915229320526123
			],
			"min":[
				-0.2526751756668091,
				-0.3193036615848541,
				-3.5915229320526123
			],
			"type":"VEC3"
		},
		{
			"bufferView":15,
			"componentType":5126,
			"count":232,
			"type":"VEC2"
		},
		{
			"bufferView":16,
			"componentType":5126,
			"count":232,
			"type":"VEC3"
		},
		{
			"bufferView":17,
			"componentType":5123,
			"count":348,
			"type":"SCALAR"
		},
		{
			"bufferView":19,
			"componentType":5126,
			"count":32,
			"max":[
				0.2584313154220581,
				0.8404480814933777,
				1.645697832107544
			],
			"min":[
				-0.3549013137817383,
				0.08998420834541321,
				-1.645697832107544
			],
			"type":"VEC3"
		},
		{
			"bufferView":20,
			"componentType":5126,
			"count":32,
			"type":"VEC2"
		},
		{
			"bufferView":21,
			"componentType":5126,
			"count":32,
			"type":"VEC3"
		},
		{
			"bufferView":22,
			"componentType":5123,
			"count":48,
			"type":"SCALAR"
		},
		{
			"bufferView":23,
			"componentType":5126,
			"count":228,
			"max":[
				0.7108212113380432,
				4.199979782104492,
				0.564547061920166
			],
			"min":[
				-0.6729130148887634,
				2.5040674209594727,
				-0.564547061920166
			],
			"type":"VEC3"
		},
		{
			"bufferView":24,
			"componentType":5126,
			"count":228,
			"type":"VEC2"
		},
		{
			"bufferView":25,
			"componentType":5126,
			"count":228,
			"type":"VEC3"
		},
		{
			"bufferView":26,
			"componentType":5123,
			"count":366,
			"type":"SCALAR"
		},
		{
			"bufferView":28,
			"componentType":5126,
			"count":154,
			"max":[
				0.7108212113380432,
				3.73777437210083,
				0.47286465764045715
			],
			"min":[
				-0.32762202620506287,
				2.5040674209594727,
				-0.47286465764045715
			],
			"type":"VEC3"
		},
		{
			"bufferView":29,
			"componentType":5126,
			"count":154,
			"type":"VEC2"
		},
		{
			"bufferView":30,
			"componentType":5126,
			"count":154,
			"type":"VEC3"
		},
		{
			"bufferView":31,
			"componentType":5123,
			"count":240,
			"type":"SCALAR"
		},
		{
			"bufferView":33,
			"componentType":5126,
			"count":38,
			"max":[
				0.09666873514652252,
				4.096508979797363,
				0.1936950832605362
			],
			"min":[
				-0.8090203404426575,
				2.5955209732055664,
				-0.1936950832605362
			],
			"type":"VEC3"
		},
		{
			"bufferView":34,
			"componentType":5126,
			"count":38,
			"type":"VEC2"
		},
		{
			"bufferView":35,
			"componentType":5126,
			"count":38,
			"type":"VEC3"
		},
		{
			"bufferView":36,
			"componentType":5123,
			"count":60,
			"type":"SCALAR"
		},
		{
			"bufferView":37,
			"componentType":5126,
			"count":192,
			"max":[
				0.5989430546760559,
				4.231894016265869,
				0.7728931903839111
			],
			"min":[
				-0.7776543498039246,
				2.740048408508301,
				-0.7728931903839111
			],
			"type":"VEC3"
		},
		{
			"bufferView":38,
			"componentType":5126,
			"count":192,
			"type":"VEC2"
		},
		{
			"bufferView":39,
			"componentType":5126,
			"count":192,
			"type":"VEC3"
		},
		{
			"bufferView":40,
			"componentType":5123,
			"count":288,
			"type":"SCALAR"
		}
	],
	"bufferViews":[
		{
			"buffer":0,
			"byteLength":1344,
			"byteOffset":0,
			"target":34962
		},
		{
			"buffer":0,
			"byteLength":896,
			"byteOffset":1344,
			"target":34962
		},
		{
			"buffer":0,
			"byteLength":1344,
			"byteOffset":2240,
			"target":34962
		},
		{
			"buffer":0,
			"byteLength":336,
			"byteOffset":3584,
			"target":34963
		},
		{
			"buffer":0,
			"byteLength":2112,
			"byteOffset":3920,
			"target":34962
		},
		{
			"buffer":0,
			"byteLength":1408,
			"byteOffset":6032,
			"target":34962
		},
		{
			"buffer":0,
			"byteLength":2112,
			"byteOffset":7440,
			"target":34962
		},
		{
			"buffer":0,
			"byteLength":528,
			"byteOffset":9552,
			"target":34963
		},
		{
			"buffer":0,
			"byteLength":211020,
			"byteOffset":10080
		},
		{
			"buffer":0,
			"byteLength":2376,
			"byteOffset":221100,
			"target":34962
		},
		{
			"buffer":0,
			"byteLength":1584,
			"byteOffset":223476,
			"target":34962
		},
		{
			"buffer":0,
			"byteLength":2376,
			"byteOffset":225060,
			"target":34962
		},
		{
			"buffer":0,
			"byteLength":624,
			"byteOffset":227436,
			"target":34963
		},
		{
			"buffer":0,
			"byteLength":194803,
			"byteOffset":228060
		},
		{
			"buffer":0,
			"byteLength":2784,
			"byteOffset":422864,
			"target":34962
		},
		{
			"buffer":0,
			"byteLength":1856,
			"byteOffset":425648,
			"target":34962
		},
		{
			"buffer":0,
			"byteLength":2784,
			"byteOffset":427504,
			"target":34962
		},
		{
			"buffer":0,
			"byteLength":696,
			"byteOffset":430288,
			"target":34963
		},
		{
			"buffer":0,
			"byteLength":219648,
			"byteOffset":430984
		},
		{
			"buffer":0,
			"byteLength":384,
			"byteOffset":650632,
			"target":34962
		},
		{
			"buffer":0,
			"byteLength":256,
			"byteOffset":651016,
			"target":34962
		},
		{
			"buffer":0,
			"byteLength":384,
			"byteOffset":651272,
			"target":34962
		},
		{
			"buffer":0,
			"byteLength":96,
			"byteOffset":651656,
			"target":34963
		},
		{
			"buffer":0,
			"byteLength":2736,
			"byteOffset":651752,
			"target":34962
		},
		{
			"buffer":0,
			"byteLength":1824,
			"byteOffset":654488,
			"target":34962
		},
		{
			"buffer":0,
			"byteLength":2736,
			"byteOffset":656312,
			"target":34962
		},
		{
			"buffer":0,
			"byteLength":732,
			"byteOffset":659048,
			"target":34963
		},
		{
			"buffer":0,
			"byteLength":134317,
			"byteOffset":659780
		},
		{
			"buffer":0,
			"byteLength":1848,
			"byteOffset":794100,
			"target":34962
		},
		{
			"buffer":0,
			"byteLength":1232,
			"byteOffset":795948,
			"target":34962
		},
		{
			"buffer":0,
			"byteLength":1848,
			"byteOffset":797180,
			"target":34962
		},
		{
			"buffer":0,
			"byteLength":480,
			"byteOffset":799028,
			"target":34963
		},
		{
			"buffer":0,
			"byteLength":281811,
			"byteOffset":799508
		},
		{
			"buffer":0,
			"byteLength":456,
			"byteOffset":1081320,
			"target":34962
		},
		{
			"buffer":0,
			"byteLength":304,
			"byteOffset":1081776,
			"target":34962
		},
		{
			"buffer":0,
			"byteLength":456,
			"byteOffset":1082080,
			"target":34962
		},
		{
			"buffer":0,
			"byteLength":120,
			"byteOffset":1082536,
			"target":34963
		},
		{
			"buffer":0,
			"byteLength":2304,
			"byteOffset":1082656,
			"target":34962
		},
		{
			"buffer":0,
			"byteLength":1536,
			"byteOffset":1084960,
			"target":34962
		},
		{
			"buffer":0,
			"byteLength":2304,
			"byteOffset":1086496,
			"target":34962
		},
		{
			"buffer":0,
			"byteLength":576,
			"byteOffset":1088800,
			"target":34963
		}
	],
	"samplers":[
		{
			"magFilter":9729,
			"minFilter":9987
		}
	],
	"buffers":[
		{
			"byteLength":1089376,
			"uri":"data:application/octet-stream;base64,"
		}
	]
}
